<svg xmlns="http://www.w3.org/2000/svg" width="76" height="68.414"><path data-name="Path 7723" d="M71.958 0H4.043A4.047 4.047 0 0 0 0 4.046v49.8a4.047 4.047 0 0 0 4.043 4.042h3.33a1.113 1.113 0 0 0 0-2.227h-3.33a1.818 1.818 0 0 1-1.816-1.815V12.578h58.187a1.113 1.113 0 1 0 0-2.227H2.227V4.046A1.818 1.818 0 0 1 4.043 2.23h67.915a1.818 1.818 0 0 1 1.815 1.816v6.309h-8.115a1.113 1.113 0 0 0 0 2.227h8.115v41.264a1.818 1.818 0 0 1-1.816 1.816h-3.383a1.113 1.113 0 0 0 0 2.227h3.384A4.047 4.047 0 0 0 76 53.846v-49.8A4.047 4.047 0 0 0 71.958 0Z" fill="#c1c1c1"/><path data-name="Path 7724" d="M6.216 5.177a1.113 1.113 0 1 0 0 2.227h4.571a1.113 1.113 0 0 0 0-2.227Z" fill="#c1c1c1"/><path data-name="Path 7725" d="M15.982 5.177a1.113 1.113 0 0 0 0 2.227h4.571a1.113 1.113 0 0 0 0-2.227Z" fill="#c1c1c1"/><path data-name="Path 7726" d="M25.779 5.177a1.113 1.113 0 0 0 0 2.227h4.571a1.113 1.113 0 0 0 0-2.227Z" fill="#c1c1c1"/><path data-name="Path 7727" d="M64.174 20.397h-20.8a6.488 6.488 0 0 0-5.376 2.858 6.488 6.488 0 0 0-5.376-2.858h-20.8a1.113 1.113 0 0 0-1.113 1.113v42.169a4.74 4.74 0 0 0 4.735 4.735h45.105a4.74 4.74 0 0 0 4.735-4.735V35.3a1.113 1.113 0 1 0-2.227 0v25.512H43.376a6.462 6.462 0 0 0-4.263 1.6V26.886a4.267 4.267 0 0 1 4.263-4.263h19.685v7.495a1.113 1.113 0 1 0 2.227 0V21.51a1.113 1.113 0 0 0-1.114-1.113ZM12.942 63.679v-.641h4.675a1.113 1.113 0 0 0 0-2.227h-4.675V22.624h19.682a4.267 4.267 0 0 1 4.263 4.263v35.525a6.463 6.463 0 0 0-4.263-1.6h-9.87a1.113 1.113 0 0 0 0 2.227h9.87a4.27 4.27 0 0 1 4.115 3.149H15.447a2.511 2.511 0 0 1-2.505-2.509Zm30.436-.641h19.685v.641a2.511 2.511 0 0 1-2.508 2.508H39.261a4.27 4.27 0 0 1 4.115-3.149Z" fill="#c1c1c1"/><path data-name="Path 7728" d="M17.033 29.823h14.313a1.113 1.113 0 1 0 0-2.227H17.033a1.113 1.113 0 1 0 0 2.227Z" fill="#c1c1c1"/><path data-name="Path 7729" d="M17.033 36.389h14.313a1.113 1.113 0 1 0 0-2.227H17.033a1.113 1.113 0 1 0 0 2.227Z" fill="#c1c1c1"/><path data-name="Path 7730" d="M17.033 42.955h14.313a1.113 1.113 0 1 0 0-2.227H17.033a1.113 1.113 0 0 0 0 2.227Z" fill="#c1c1c1"/><path data-name="Path 7731" d="M17.033 49.521h14.313a1.113 1.113 0 1 0 0-2.227H17.033a1.113 1.113 0 1 0 0 2.227Z" fill="#c1c1c1"/><path data-name="Path 7732" d="M32.459 54.973a1.113 1.113 0 0 0-1.113-1.113H17.033a1.113 1.113 0 0 0 0 2.227h14.313a1.113 1.113 0 0 0 1.113-1.114Z" fill="#c1c1c1"/><path data-name="Path 7733" d="M58.96 27.596H44.65a1.113 1.113 0 1 0 0 2.227h14.31a1.113 1.113 0 1 0 0-2.227Z" fill="#c1c1c1"/><path data-name="Path 7734" d="M58.96 34.162H44.65a1.113 1.113 0 0 0 0 2.227h14.31a1.113 1.113 0 0 0 0-2.227Z" fill="#c1c1c1"/><path data-name="Path 7735" d="M58.96 40.728H44.65a1.113 1.113 0 0 0 0 2.227h14.31a1.113 1.113 0 0 0 0-2.227Z" fill="#c1c1c1"/><path data-name="Path 7736" d="M58.96 47.294H44.65a1.113 1.113 0 1 0 0 2.227h14.31a1.113 1.113 0 1 0 0-2.227Z" fill="#c1c1c1"/><path data-name="Path 7737" d="M58.96 53.858H44.65a1.113 1.113 0 0 0 0 2.227h14.31a1.113 1.113 0 0 0 0-2.227Z" fill="#c1c1c1"/></svg>