<svg xmlns="http://www.w3.org/2000/svg" width="76" height="69.061"><g fill="#c1c1c1"><path data-name="Path 7749" d="M74.26 58.013h-1.22v-39.3a7.293 7.293 0 0 0-7.285-7.285H61.8a1.115 1.115 0 0 0 0 2.23h3.955a5.061 5.061 0 0 1 5.055 5.055v39.3H45.887a2.294 2.294 0 0 0-1.9 1l-.334.491a1.665 1.665 0 0 1-1.378.729h-8.7a1.665 1.665 0 0 1-1.378-.729l-.334-.491a2.294 2.294 0 0 0-1.9-1H18.085a1.115 1.115 0 1 0 0 2.23h11.879a.066.066 0 0 1 .055.029l.334.491a3.893 3.893 0 0 0 3.221 1.7h8.7a3.893 3.893 0 0 0 3.222-1.7l.334-.491a.066.066 0 0 1 .055-.029H73.77v1.206a5.387 5.387 0 0 1-5.381 5.381H7.611a5.387 5.387 0 0 1-5.381-5.381v-1.206h11.1a1.115 1.115 0 1 0 0-2.23H5.19v-39.3a5.061 5.061 0 0 1 5.055-5.055h3.288a1.115 1.115 0 0 0 0-2.23h-3.287a7.293 7.293 0 0 0-7.286 7.289v39.3H1.74A1.741 1.741 0 0 0 0 59.753v1.7a7.62 7.62 0 0 0 7.611 7.611h60.778A7.62 7.62 0 0 0 76 61.449v-1.7a1.742 1.742 0 0 0-1.74-1.736Z"/><path data-name="Path 7750" d="M10.245 18.419h7.181a1.115 1.115 0 0 0 0-2.23h-7.181a2.531 2.531 0 0 0-2.528 2.528v35.654a1.115 1.115 0 0 0 1.115 1.115h58.335a1.115 1.115 0 0 0 1.115-1.115v-9.435a1.115 1.115 0 0 0-2.23 0v8.32H9.947V18.717a.3.3 0 0 1 .3-.3Z"/><path data-name="Path 7751" d="M68.282 18.717a2.531 2.531 0 0 0-2.528-2.528h-3.611a1.115 1.115 0 0 0 0 2.23h3.611a.3.3 0 0 1 .3.3v21.466a1.115 1.115 0 1 0 2.23 0Z"/><path data-name="Path 7752" d="m18.644 14.561 2.631 1.413v10.387a6.9 6.9 0 0 0 6.893 6.893h19.666a6.9 6.9 0 0 0 6.893-6.893V15.897l1.616-.868v19.85a4.052 4.052 0 1 0 2.23 0v-22.6A2.584 2.584 0 0 0 57.21 10L39.151.3a2.58 2.58 0 0 0-2.448 0L18.644 10a2.587 2.587 0 0 0 0 4.559Zm40.637 24.21a1.822 1.822 0 1 1-1.822-1.822 1.824 1.824 0 0 1 1.821 1.826Zm-39.582-26.8 18.059-9.7a.356.356 0 0 1 .338 0l18.059 9.7a.358.358 0 0 1 0 .63l-18.059 9.7a.356.356 0 0 1-.338 0l-5.114-2.751a1.115 1.115 0 0 0-1.055 1.964l5.116 2.747a2.58 2.58 0 0 0 2.448 0L52.5 17.094v9.267a4.668 4.668 0 0 1-4.663 4.663H28.166a4.668 4.668 0 0 1-4.663-4.663v-9.187l3.762 2.02a1.115 1.115 0 1 0 1.055-1.964l-8.623-4.63a.357.357 0 0 1 0-.63Z"/></g></svg>