<svg data-name="Live Lectures" xmlns="http://www.w3.org/2000/svg" width="66.978" height="66.972"><path data-name="Path 7862" d="M18.574 66.973a1.749 1.749 0 0 1-.863-1.984 6.489 6.489 0 0 1 5.409-5.753 4.282 4.282 0 0 0 .423-.132v-6H4.092C1.471 53.104 0 51.637 0 49.012V11.16c0-2.625 1.463-4.092 4.092-4.092H30.31a3.564 3.564 0 0 1 .842.072 1.27 1.27 0 0 1-.006 2.477 3.676 3.676 0 0 1-.842.068H4.281c-1.4 0-1.652.249-1.652 1.619v30.772h4.437c0-1.064-.012-2.124 0-3.184a9.755 9.755 0 0 1 7.59-9.5c.29-.07.585-.127.974-.212-1.5-1.783-1.59-3.837-1.532-5.935.031-1.068 0-2.143 0-3.2a5.51 5.51 0 0 1 5.631-5.629c2.157-.033 4.314-.014 6.471 0a1.349 1.349 0 0 1 1.54 1.52q.016 4.482 0 8.963a6.7 6.7 0 0 1-1.224 3.907 3.257 3.257 0 0 0-.17.292 23.2 23.2 0 0 1 2.831.988 9.519 9.519 0 0 1 5.606 8.617c.051 1.107 0 2.217 0 3.369h22.505v-3.451c0-.764-.027-1.528.018-2.288a1.3 1.3 0 0 1 1.323-1.269 1.333 1.333 0 0 1 1.264 1.272 5.182 5.182 0 0 1 .01.522v12.227a3.682 3.682 0 0 1-4.024 4.02H36.407v6.005a3.9 3.9 0 0 0 .438.14 6.537 6.537 0 0 1 5.386 6.134 1.651 1.651 0 0 1-.906 1.592ZM2.619 44.759v4.1c0 1.374.259 1.633 1.643 1.633H55.64a5.172 5.172 0 0 0 .717-.018.929.929 0 0 0 .9-.885c.037-1.6.014-3.205.014-4.83Zm29.468-2.67c0-1.364.107-2.728-.021-4.057a6.99 6.99 0 0 0-5.456-6.096.855.855 0 0 0-.918.265 261.81 261.81 0 0 1-3.648 3.654 1.364 1.364 0 0 1-2.212 0c-.918-.9-1.82-1.814-2.728-2.728-1.516-1.516-1.582-1.526-3.542-.573a3.753 3.753 0 0 0-.39.224c-3.574 2.3-3.712 5.474-3.371 9.3Zm1.617 17.017v-5.943h-7.49v5.943Zm5.612 5.224a3.617 3.617 0 0 0-3.353-2.57q-6.011-.055-12.023 0a3.6 3.6 0 0 0-3.35 2.57Zm-22.57-40.674c0 .585-.029 1.107 0 1.625a4.2 4.2 0 0 0 5.236 3.7c2.449-.7 3.539-2.851 3.055-5.663-2.72.589-5.497.102-8.291.338Zm8.379-6.639h-5.213a3.016 3.016 0 0 0-3.1 3.93c2.251 0 4.507.035 6.762-.018a1.691 1.691 0 0 0 1.541-1.67c.035-.711.006-1.428.006-2.243ZM19.54 31.793l1.364 1.321 1.3-1.321Z" fill="#c1c1c1"/><path data-name="Path 7863" d="M66.966 21.458a8.8 8.8 0 0 1-1.5 3.211 6.506 6.506 0 0 1-5.08 2.4c-4.117.025-8.237.016-12.356 0a1.426 1.426 0 0 0-1.138.472c-1.169 1.206-2.369 2.373-3.548 3.568a1.382 1.382 0 0 1-2.506-1.044c0-.828-.014-1.656.01-2.482 0-.39-.094-.561-.514-.651a6.421 6.421 0 0 1-5.261-6.417q-.064-7.058 0-14.119a6.492 6.492 0 0 1 6.3-6.358q9.64-.082 19.291 0a6.515 6.515 0 0 1 6.183 5.252 3.115 3.115 0 0 0 .131.355ZM43.459 27.07l.207.144c.514-.557 1.054-1.091 1.534-1.676a2.968 2.968 0 0 1 2.572-1.093c4.16.053 8.322.031 12.482.016a3.9 3.9 0 0 0 4.092-4q.037-6.929 0-13.856a3.868 3.868 0 0 0-3.985-3.969q-9.353-.037-18.693 0a3.864 3.864 0 0 0-3.983 3.971c-.029 4.618-.012 9.238 0 13.856a3.878 3.878 0 0 0 .8 2.436 4.03 4.03 0 0 0 3.362 1.571c1.169 0 1.609.47 1.623 1.629-.007.324-.011.647-.011.97Z" fill="#c1c1c1"/><path data-name="Path 7864" d="M59.894 31.457a1.3 1.3 0 1 1-1.284-1.267 1.3 1.3 0 0 1 1.284 1.267Z" fill="#c1c1c1"/><path data-name="Path 7865" d="M29.935 48.909a1.3 1.3 0 1 1 1.321-1.272 1.341 1.341 0 0 1-1.321 1.272Z" fill="#c1c1c1"/><path data-name="Path 7866" d="M50.943 14.526H43.62a1.307 1.307 0 0 1-1.376-1.808 1.443 1.443 0 0 1 1.508-.8h8.042c2.2 0 4.4-.01 6.6 0a1.31 1.31 0 0 1 1.384 1.803 1.4 1.4 0 0 1-1.444.8q-3.696 0-7.391.005Z" fill="#c1c1c1"/><path data-name="Path 7867" d="M51.009 20.281c-2.463 0-4.926.01-7.389 0a1.306 1.306 0 0 1-1.376-1.808 1.442 1.442 0 0 1 1.506-.8h8.044c2.2 0 4.4-.012 6.6 0a1.31 1.31 0 0 1 1.378 1.81 1.4 1.4 0 0 1-1.444.8q-3.655-.008-7.319-.002Z" fill="#c1c1c1"/><path data-name="Path 7868" d="M53.691 6.156h4.708a1.344 1.344 0 0 1 1.485 1.169c.1.82-.548 1.43-1.559 1.434h-7.323c-.7 0-1.4.016-2.091 0a1.308 1.308 0 1 1 0-2.605c1.598-.01 3.19.002 4.78.002Z" fill="#c1c1c1"/><path data-name="Path 7869" d="M44.721 7.441A1.3 1.3 0 1 1 43.4 6.167a1.339 1.339 0 0 1 1.321 1.274Z" fill="#c1c1c1"/></svg>