<svg xmlns="http://www.w3.org/2000/svg" width="74.671" height="66.972"><g data-name="Recorded Lectures" fill="#c1c1c1"><path data-name="Path 7857" d="M0 17.879c.318-1.487.526-3.012.988-4.454A19.365 19.365 0 0 1 20.668.044a19.85 19.85 0 0 1 8.95 2.785 2.533 2.533 0 0 0 1.226.31q18.846.023 37.695.012c3.817 0 6.132 2.311 6.132 6.122V44.85a5.6 5.6 0 0 1-4.382 5.762 8.662 8.662 0 0 1-1.882.156q-9.743.014-19.466 0H47.93c.511 2.214 1 4.31 1.485 6.43.994.058 1.964.043 2.913.181a7.171 7.171 0 0 1 6.111 6.941 2.484 2.484 0 0 1-2.225 2.615 6.872 6.872 0 0 1-.873.035H25.6c-2.254 0-3.213-1.037-3.016-3.258a7.234 7.234 0 0 1 6.871-6.448c.692-.029 1.572.158 2.017-.195s.39-1.245.548-1.906c.331-1.415.655-2.831 1.015-4.4H12.379a5.982 5.982 0 0 1-4-1.28 5.587 5.587 0 0 1-2.081-4.47c0-3.523.012-7.048-.021-10.571a1.67 1.67 0 0 0-.448-1.052A19.494 19.494 0 0 1 .142 21.701a6.236 6.236 0 0 0-.134-.624Zm72.486 25.4H61.99c-.242 0-.55.08-.715-.037a2.29 2.29 0 0 1-.875-.912.883.883 0 0 1 .651-1.138 2.74 2.74 0 0 1 .857-.1h10.551c.014-.222.025-.341.025-.46V8.829a3.413 3.413 0 0 0-3.6-3.484H33.587c-.171 0-.343.037-.585.062a19.739 19.739 0 0 1 2.338 25.5c.548.5 1.111 1.035 1.7 1.541a.6.6 0 0 0 .452.131 2.64 2.64 0 0 1 2.533.945q3.542 3.574 7.128 7.106a1.691 1.691 0 0 0 1.06.438c2.26.039 4.523.02 6.783.02.559 0 1.118-.02 1.676 0a1.091 1.091 0 1 1-.016 2.18c-.316.016-.633 0-.949 0H49.77a12.3 12.3 0 0 1 .329 2.671 13.272 13.272 0 0 1-.8 2.625h19.175c.292 0 .585 0 .875-.019a3.394 3.394 0 0 0 3.127-3.194c.035-.647.006-1.3.006-2.073Zm-53-6.487a17.3 17.3 0 1 0-17.305-17.2 17.343 17.343 0 0 0 17.305 17.2ZM8.474 43.273v1.559a3.432 3.432 0 0 0 3.7 3.737h29c.222 0 .442-.029.867-.058-1.687-1.672-3.231-3.18-4.743-4.719a1.611 1.611 0 0 0-1.27-.528q-13.336.023-26.674.012Zm32.005 21.52h14.944c.824 0 .885-.076.779-.881a4.92 4.92 0 0 0-4.809-4.433q-10.9-.068-21.8 0a4.94 4.94 0 0 0-4.819 4.339c-.105.937-.072.974.9.974ZM8.502 41.015h25.915a3.094 3.094 0 0 0-.793-.908 2.7 2.7 0 0 1-1.06-2.634.585.585 0 0 0-.129-.446c-.522-.569-1.068-1.115-1.615-1.678a19.567 19.567 0 0 1-22.305.257Zm38.663 16.214c-.477-2.079-.937-4.111-1.428-6.134a.606.606 0 0 0-.481-.3q-4.774-.029-9.548 0a.662.662 0 0 0-.5.368c-.487 2-.939 4.01-1.413 6.068ZM38.17 34.807l-3.488 3.3 5.008 4.984c1.4 1.387 2.779 2.786 4.18 4.17a2.4 2.4 0 0 0 4.067-1.366 2.476 2.476 0 0 0-.855-2.216q-4.287-4.267-8.558-8.55c-.153-.156-.321-.293-.354-.322Zm-4.2.6 1.311-1.245-1.278-1.6-1.407 1.376Z"/><path data-name="Path 7858" d="M55.285 13.926h10.853a5.237 5.237 0 0 1 .655.014 1.011 1.011 0 0 1 .961 1.011 1.022 1.022 0 0 1-.842 1.118 2.788 2.788 0 0 1-.723.043H44.266a3.866 3.866 0 0 1-.585-.016 1.062 1.062 0 0 1-.955-1.169 1.005 1.005 0 0 1 1.05-.994c.727-.027 1.456 0 2.184 0Z"/><path data-name="Path 7859" d="M55.267 20.902h10.775a6.415 6.415 0 0 1 .8.027.9.9 0 0 1 .885.974 1.885 1.885 0 0 1-.68 1.068c-.195.17-.6.125-.91.127H44.359a3.425 3.425 0 0 1-.723-.037 1.018 1.018 0 0 1-.906-1.132.99.99 0 0 1 1.027-1.011c.483-.031.974-.016 1.456-.016Z"/><path data-name="Path 7860" d="M48.872 27.878c1.627 0 3.254-.012 4.871 0 .83 0 1.263.405 1.259 1.089s-.444 1.079-1.269 1.087c-1.754.016-3.5 0-5.244 0-1.506 0-3.011.012-4.515 0-.867-.01-1.364-.512-1.249-1.241s.6-.939 1.259-.937Z"/><path data-name="Path 7861" d="M9.298 28.087c1.559-2.424 4.092-2.387 6.407-2.923a1.671 1.671 0 0 0-.474-1.738 5.554 5.554 0 0 1-1.173-1.639 6.092 6.092 0 0 0-1.239-2.227 1.956 1.956 0 0 1-.347-1.288 96.107 96.107 0 0 1-.012-4.228 4.6 4.6 0 0 1 4.844-4.786h4.375a2.594 2.594 0 0 1 2.6 1.631 1.033 1.033 0 0 0 .489.452 2.576 2.576 0 0 1 1.66 2.508c0 1.506 0 3.014.01 4.521a2.042 2.042 0 0 1-.789 1.715 1.339 1.339 0 0 0-.39.643 5.494 5.494 0 0 1-1.645 2.783 1.443 1.443 0 0 0-.5 1.629c2.327.538 4.953.466 6.5 2.974.195-.228.372-.411.518-.618 3.092-4.357 3.644-9.039 1.3-13.835a12.631 12.631 0 0 0-11.65-7.449 13.188 13.188 0 0 0-13.4 10.859 1.831 1.831 0 0 1-.585 1.093 1.166 1.166 0 0 1-1.115 0 1.516 1.516 0 0 1-.464-1.169 14.353 14.353 0 0 1 2.917-6.886 15.264 15.264 0 0 1 16.3-5.6c6.4 1.82 10.279 6.136 11.36 12.695a15.488 15.488 0 0 1-30.5 5.325 1.863 1.863 0 0 1 .234-1.278 1.073 1.073 0 0 1 1.011-.288 1.613 1.613 0 0 1 .834.957 14.252 14.252 0 0 0 1.8 4.581c.324.513.697.993 1.124 1.586Zm10.347 4.7a12.931 12.931 0 0 0 7.438-2.373c.922-.635.939-1.159.039-1.873a2.51 2.51 0 0 0-.894-.462 30.998 30.998 0 0 0-2.691-.6 1.3 1.3 0 0 0-.9.218 5.2 5.2 0 0 1-6.477.016 1.037 1.037 0 0 0-.7-.232 27.649 27.649 0 0 0-3.032.719 2.805 2.805 0 0 0-1.072.813c-.39.427-.341.8.195 1.169a13.433 13.433 0 0 0 8.09 2.6ZM14.526 17.57c.152.341.195.655.353.75a1.8 1.8 0 0 1 .828 1.454 3.728 3.728 0 0 0 3.864 3.237 3.8 3.8 0 0 0 3.654-3.416 3.991 3.991 0 0 1 .688-1.2c.1-.168.286-.323.3-.495.041-.481.014-.974.014-1.495a5.5 5.5 0 0 0-3.441.306 10.17 10.17 0 0 1-2.9.832 26.367 26.367 0 0 1-3.36.027Zm9.663-3.564c.1-.39-.029-.61-.481-.659a1.471 1.471 0 0 1-1.417-1.325c-.068-.45-.277-.6-.725-.585-1.5.023-3.007 0-4.511.01a2.286 2.286 0 0 0-2.052 1.169 4.773 4.773 0 0 0-.335 2.746c2.056.012 4.043.312 5.811-.887a1.637 1.637 0 0 1 .754-.246c.959-.093 1.919-.142 2.956-.223Zm-6.311 11.128c.074.39.016 1.013.253 1.169a2.338 2.338 0 0 0 2.553-.018c.22-.138.152-.737.22-1.146Z"/></g></svg>